<?xml version="1.0" standalone="no"?>
<!DOCTYPE svg PUBLIC "-//W3C//DTD SVG 20010904//EN"
 "http://www.w3.org/TR/2001/REC-SVG-20010904/DTD/svg10.dtd">
<svg version="1.0" xmlns="http://www.w3.org/2000/svg"
 width="1280.000000pt" height="1280.000000pt" viewBox="0 0 1280.000000 1280.000000"
 preserveAspectRatio="xMidYMid meet">

<g transform="translate(0.000000,1280.000000) scale(0.100000,-0.100000)"
fill="#000000" stroke="none">
<path d="M0 6400 l0 -6400 6400 0 6400 0 0 6400 0 6400 -6400 0 -6400 0 0
-6400z m4182 5623 c47 -71 276 -416 510 -768 1377 -2074 2011 -3030 2433
-3665 342 -515 757 -1141 1680 -2530 221 -333 604 -909 851 -1280 l449 -675 3
420 c1 231 1 2020 -1 3975 -2 3351 -4 3560 -20 3650 -80 428 -285 664 -672
775 -174 50 -257 57 -717 62 l-428 5 0 79 0 79 1925 0 1925 0 0 -80 0 -80
-367 0 c-254 0 -411 -5 -507 -15 -313 -33 -551 -132 -715 -297 -115 -115 -179
-238 -229 -438 l-27 -105 -5 -5240 -5 -5240 -305 -2 -305 -3 -390 588 c-214
323 -688 1037 -1054 1587 -365 550 -809 1218 -986 1485 -177 267 -569 856
-870 1310 -715 1076 -1370 2063 -1820 2740 -918 1383 -1345 2026 -1352 2035
-4 6 -42 62 -83 125 -41 63 -79 120 -85 127 -5 6 -89 131 -185 278 l-175 267
-5 -319 -5 -318 -75 0 -75 0 -6 280 c-8 332 -18 405 -83 585 -77 210 -284 394
-546 483 -194 67 -293 78 -762 84 l-408 5 0 79 0 79 1703 0 1703 0 86 -127z
m-1635 -2319 c260 -141 361 -281 271 -373 -40 -40 -74 -55 -185 -77 -48 -10
-90 -19 -92 -20 -5 -4 16 -23 71 -65 154 -117 188 -174 131 -219 -25 -19 -36
-21 -93 -16 l-65 7 30 -28 c41 -38 280 -240 331 -281 41 -32 43 -32 153 -32
93 0 121 -4 176 -25 133 -50 235 -146 235 -223 0 -50 -21 -67 -83 -66 -68 2
-180 53 -330 153 -59 39 -117 71 -128 71 -25 0 -60 -17 -170 -85 -95 -59 -196
-112 -248 -130 l-34 -11 76 -62 c280 -229 318 -432 81 -432 l-54 0 63 -62 c68
-67 81 -97 65 -154 -12 -45 -74 -87 -180 -121 -144 -47 -159 -69 -80 -126 50
-37 186 -108 292 -152 115 -48 130 -57 130 -76 0 -38 -32 -41 -157 -14 -140
29 -502 130 -516 144 -5 5 -7 17 -5 27 5 27 73 24 182 -10 48 -15 90 -25 92
-23 3 2 -13 15 -33 29 -69 46 -103 88 -103 128 0 66 41 98 176 139 77 24 132
53 140 76 15 39 -107 144 -263 226 -48 26 -57 40 -39 64 12 17 19 17 119 -4
247 -49 311 -14 212 117 -53 70 -145 158 -235 225 -36 26 -70 51 -76 56 -6 5
-34 21 -62 35 -118 60 -181 210 -130 309 11 21 54 23 61 3 3 -8 1 -31 -4 -50
-33 -121 109 -251 239 -218 26 7 74 26 107 43 99 49 284 163 285 174 0 6 -12
18 -27 27 -16 9 -39 27 -53 40 -14 13 -68 59 -120 103 -52 44 -97 82 -100 85
-18 21 -233 200 -268 224 -58 39 -89 78 -102 127 -9 33 -8 46 8 82 27 61 69
99 93 86 26 -13 24 -34 -6 -73 -15 -20 -25 -46 -25 -66 0 -44 60 -102 154
-146 74 -35 220 -73 233 -60 9 9 -39 51 -167 147 -117 88 -133 105 -120 128 7
14 27 20 84 24 42 4 110 14 153 23 160 33 182 77 86 173 -49 48 -253 181 -279
181 -17 0 -42 33 -37 48 15 41 24 40 140 -24z m-758 -1281 c6 -11 5 -26 -2
-42 -15 -32 -14 -1198 0 -1212 14 -14 62 -26 588 -144 465 -105 1339 -275
1413 -275 13 0 30 7 38 15 13 13 19 13 51 0 48 -20 63 -34 63 -55 0 -34 -26
-43 -103 -36 -114 11 -396 60 -727 127 -168 34 -325 65 -350 69 -25 5 -58 12
-75 16 -24 6 -18 -2 35 -42 36 -27 80 -71 98 -98 85 -128 9 -215 -222 -251
l-70 -10 70 -52 c93 -69 174 -155 174 -185 -1 -26 -22 -58 -39 -58 -28 0 -3
-22 97 -83 259 -160 365 -297 279 -361 -23 -17 -41 -20 -105 -19 -75 1 -241
30 -332 57 -25 8 -74 21 -110 31 -36 10 -82 24 -103 31 -20 8 -41 14 -46 14
-5 0 9 -35 31 -77 38 -73 40 -82 36 -143 l-5 -65 105 -70 c122 -82 255 -202
283 -256 34 -68 20 -123 -40 -154 -16 -8 -72 -21 -126 -29 -114 -17 -127 -25
-99 -63 51 -69 238 -175 489 -277 137 -56 150 -63 150 -86 0 -24 -3 -25 -60
-25 -33 0 -94 8 -135 18 -41 9 -106 23 -145 32 -38 8 -140 30 -224 49 -85 20
-156 34 -157 33 -3 -3 429 -368 461 -391 15 -10 35 -11 79 -5 127 17 285 -33
381 -122 101 -93 100 -199 -2 -199 -37 0 -141 37 -206 73 -36 20 -172 109
-232 152 -22 15 -77 -9 -200 -86 -60 -37 -143 -83 -183 -102 l-73 -33 116 -89
c288 -218 309 -363 53 -353 l-89 3 60 -55 c64 -59 81 -85 81 -123 0 -25 -34
-77 -50 -77 -5 0 -21 -5 -36 -11 l-28 -10 31 -25 c47 -37 75 -88 75 -137 -1
-36 -6 -47 -40 -77 -23 -21 -68 -45 -108 -59 -126 -43 -164 -62 -164 -82 0
-38 125 -115 334 -205 129 -55 151 -73 124 -100 -15 -16 -23 -16 -110 0 -101
19 -371 90 -483 127 -62 21 -70 27 -70 49 0 15 6 26 16 28 9 2 72 -13 140 -32
68 -19 125 -33 127 -32 1 2 -19 18 -46 35 -70 45 -102 86 -102 133 0 55 46 93
150 124 73 21 134 51 155 74 18 20 18 24 4 48 -19 34 -134 122 -221 168 -71
37 -87 63 -49 84 15 7 32 4 74 -15 31 -13 77 -27 104 -30 50 -7 103 6 103 25
0 15 -94 102 -160 147 -49 34 -55 43 -55 73 0 40 -12 39 201 25 62 -4 118 -4
127 1 15 8 15 12 0 42 -9 18 -48 63 -88 100 -80 75 -283 220 -325 232 -100 29
-179 120 -195 225 -9 54 13 119 41 123 33 5 48 -21 34 -62 -20 -62 17 -148 84
-193 36 -24 50 -28 111 -27 80 1 136 23 256 100 40 25 99 61 131 79 l59 32
-48 39 c-98 80 -400 338 -448 384 l-50 47 -225 53 c-206 48 -436 105 -583 144
-156 42 -381 143 -432 193 -14 15 -28 37 -32 51 -17 68 98 68 284 1 65 -24
223 -95 350 -160 128 -64 245 -119 260 -122 16 -4 84 -20 153 -37 225 -55 685
-160 698 -160 4 0 -24 17 -63 38 -215 116 -302 217 -248 290 23 31 72 49 168
61 78 9 115 24 115 45 0 47 -122 164 -293 280 l-87 60 -50 -18 c-62 -22 -111
-16 -199 27 -76 37 -176 131 -186 175 -8 39 8 70 41 78 41 10 139 -22 262 -87
l112 -59 0 28 c0 29 -34 100 -82 170 -32 47 -34 88 -6 106 13 8 43 2 125 -23
182 -57 440 -120 501 -121 99 -3 122 0 122 12 0 24 -132 138 -243 212 -114 74
-268 161 -411 232 -144 71 -213 164 -183 246 18 53 63 100 89 96 32 -4 34 -38
3 -73 -60 -71 -7 -152 145 -217 85 -36 204 -67 215 -56 9 9 -69 79 -178 160
-104 78 -117 91 -110 117 4 16 19 20 91 25 108 8 217 33 260 58 67 41 25 115
-121 212 -130 86 -210 121 -342 150 -66 15 -147 33 -180 41 -33 8 -103 24
-155 36 -52 12 -110 25 -127 29 -18 5 -34 5 -37 2 -2 -4 1 -150 6 -325 5 -175
7 -325 4 -333 -4 -10 -16 -14 -33 -12 l-28 3 -7 150 c-3 83 -8 238 -10 345
l-5 195 -203 52 c-112 28 -210 59 -219 68 -21 21 -3 51 30 49 20 -2 312 -72
371 -90 16 -5 17 31 15 553 -2 563 2 661 29 688 20 20 41 19 53 -2z m445 -479
c20 -19 21 -68 2 -83 -16 -13 -61 18 -71 50 -13 41 37 65 69 33z m421 -6126
c21 -371 128 -613 341 -773 124 -94 257 -151 444 -192 112 -25 129 -26 610
-32 l495 -6 3 -83 3 -82 -1931 0 -1931 0 3 83 3 82 435 6 c403 5 443 7 540 29
501 108 745 367 805 853 8 67 15 147 15 179 l0 58 79 0 78 0 8 -122z"/>
<path d="M3090 8532 c0 -12 158 -108 242 -147 83 -38 108 -43 108 -21 0 21
-96 105 -143 126 -82 36 -207 62 -207 42z"/>
<path d="M2083 5697 c43 -66 193 -144 254 -132 18 3 33 9 33 13 0 13 -207 113
-273 133 -28 8 -28 7 -14 -14z"/>
<path d="M1225 5193 c78 -48 379 -163 391 -150 11 10 -315 144 -391 161 l-30
7 30 -18z"/>
<path d="M3090 4280 c0 -12 150 -106 232 -145 71 -34 118 -44 118 -25 0 16
-62 81 -100 105 -63 40 -250 89 -250 65z"/>
</g>
</svg>
